<?xml version="1.0" encoding="iso-8859-1"?>
<!-- Generator: Adobe Illustrator 19.0.0, SVG Export Plug-In . SVG Version: 6.00 Build 0)  -->
<svg version="1.1" id="Capa_1" xmlns="http://www.w3.org/2000/svg" xmlns:xlink="http://www.w3.org/1999/xlink" x="0px" y="0px"
	 viewBox="0 0 511.999 511.999" style="enable-background:new 0 0 511.999 511.999;" xml:space="preserve">
<path style="fill:#8B534F;" d="M233.113,357.524c-0.768-4.904,0.787-9.886,4.208-13.483l24.12-25.767
	c20.244-21.627,14.564-56.555-11.491-70.652l0,0c-21.46-11.611-48.301-4.063-60.583,17.021c-0.684,1.173-1.16,2.019-1.366,2.431
	c-10.925,21.92-11.956,47.481-4.754,70.889l26.675,86.693l-22.659,5.665c-5.725,1.431-10.196,5.901-11.627,11.627l-2.617,10.468
	c-1.548,6.193,3.136,12.193,9.519,12.193h48.659c9.811,0,17.305-8.759,15.789-18.452L233.113,357.524z"/>
<path style="fill:#C0826C;" d="M407.017,272.838c-22.621-23.952-68.949-68.044-119.855-92.556
	c-53.935-25.969-101.211-10.654-119.855-59.262c-18.097-47.184-33.293-89.226-87.894-67.918
	C15.814,77.922,7.499,100.379,7.499,108.37s2.859,41.114,15.981,44.613c7.753,2.067,34.773,3.58,64.695-7.045
	c4.178-1.484,8.737,0.817,10.101,5.036c9.984,30.879,47.792,127.337,140.717,167.751c27.694,12.045,72.523,12.408,73.805,12.377
	c141.829-3.329,156.175,45.513,143.826,58.597c-19.978,21.167-54.934,10.321-70.582-6.325c-10.17-10.819-11.777-8.675-10.987-6.658
	c19.31,49.274,109.867,67.918,127.846,0.999C517.569,323.123,423.998,290.817,407.017,272.838z"/>
<g>
	<path style="fill:#AF6E5A;" d="M480.929,358.735c-26.635-50.606-129.316-44.353-203.754-55.933
		c-89.892-13.983-129.844-91.889-147.822-161.139c-6.645-25.596-18.977-35.624-37.955-25.969
		C65.994,128.62,30.32,132.9,11.09,134.312c2.407,8.959,6.273,17.04,12.39,18.671c7.753,2.067,34.773,3.58,64.695-7.045
		c4.178-1.484,8.737,0.817,10.101,5.036c9.984,30.879,47.792,127.337,140.717,167.751c27.694,12.045,72.523,12.408,73.805,12.377
		c141.829-3.329,156.175,45.513,143.826,58.597c-19.978,21.167-50.338,8.07-66.586-7.99
		C447.636,438.639,495.535,386.488,480.929,358.735z"/>
	<path style="fill:#AF6E5A;" d="M294.372,357.524c-0.768-4.904,0.787-9.886,4.208-13.483l24.12-25.767
		c20.244-21.627,14.564-56.555-11.491-70.652l0,0c-21.46-11.611-48.301-4.063-60.583,17.021c-0.684,1.173-1.16,2.019-1.366,2.431
		c-10.925,21.92-11.956,47.481-4.754,70.889l26.675,86.693l-22.659,5.665c-5.725,1.431-10.196,5.901-11.627,11.627l-2.617,10.468
		c-1.549,6.193,3.136,12.193,9.519,12.193h48.659c9.811,0,17.305-8.759,15.789-18.452L294.372,357.524z"/>
</g>
<path d="M436.71,283.655c-10.55-6.182-20.514-12.02-24.24-15.966c-18.433-19.518-67.226-67.765-122.053-94.164
	c-20.373-9.809-39.675-13.928-56.703-17.561c-28.436-6.067-48.98-10.452-59.404-37.629l-0.781-2.038
	c-12.141-31.674-23.607-61.593-47.916-72.342c-13.687-6.054-29.69-5.345-48.926,2.16C7.472,73.128,0,98.65,0,108.37
	c0,4.913,0.874,15.826,3.28,25.757c3.65,15.062,9.797,23.844,18.268,26.103c10.767,2.871,39.324,3.531,69.81-7.438
	c3.607,11.729,12.591,37.596,29.257,66.646c0.55,0.959,1.111,1.902,1.668,2.85l-23.137-14.79c-0.031-0.02-0.065-0.035-0.096-0.055
	c-0.128-0.079-0.26-0.153-0.395-0.225c-0.093-0.05-0.185-0.099-0.279-0.145c-0.123-0.059-0.249-0.114-0.376-0.167
	c-0.11-0.046-0.221-0.091-0.333-0.132c-0.051-0.019-0.098-0.042-0.149-0.059c-13.413-4.551-27.738-6.212-28.341-6.28
	c-4.117-0.457-7.83,2.49-8.298,6.604c-0.468,4.116,2.49,7.83,6.604,8.298c0.075,0.008,4.431,0.514,10.37,1.702
	c-3.606,3.991-6.091,7.85-6.908,9.179c-2.171,3.528-1.07,8.146,2.458,10.316c3.527,2.171,8.146,1.07,10.316-2.458
	c2.413-3.923,6.95-9.393,10.671-11.817l41.999,26.847c1.721,1.101,3.568,1.954,5.507,2.558c1.546,2.036,3.116,4.034,4.7,6.004
	c-1.468,0.761-3.178,1.062-4.904,0.772l-53.038-8.976c-0.056-0.009-0.112-0.011-0.167-0.02c-0.107-0.016-0.215-0.027-0.323-0.038
	c-0.138-0.014-0.276-0.027-0.415-0.033c-0.117-0.006-0.235-0.006-0.353-0.006c-0.129,0-0.259,0.001-0.387,0.008
	c-0.053,0.003-0.105,0-0.158,0.003c-14.126,1.047-27.963,5.11-28.545,5.282c-3.97,1.177-6.232,5.347-5.06,9.317
	c0.965,3.262,3.952,5.374,7.189,5.374c0.703,0,1.419-0.1,2.127-0.309c0.073-0.022,4.26-1.246,10.153-2.467
	c-1.104,3.141-2.062,6.823-2.715,11.132c-0.621,4.095,2.196,7.917,6.291,8.537c0.381,0.058,0.759,0.086,1.133,0.086
	c3.646,0,6.842-2.663,7.404-6.377c0.69-4.553,2.731-11.359,5.21-15.045l49.151,8.317c6.241,1.06,12.39-0.525,17.221-4.042
	c5.596,6.191,11.397,12,17.39,17.411c-3.676,17.329-2.756,35.758,2.726,53.571l24.348,79.131l-14.984,3.746
	c-8.43,2.108-14.977,8.654-17.085,17.085l-5.664,22.659c-0.56,2.241-0.057,4.614,1.365,6.434c1.421,1.82,3.602,2.885,5.91,2.885
	h122.039c6.871,0,13.374-2.994,17.841-8.215c4.467-5.221,6.419-12.108,5.357-18.895l-13.873-88.632
	c-0.405-2.585,0.43-5.261,2.232-7.155l10.111-10.634c88.491-1.895,128.871,17.208,137.145,35.794
	c2.105,4.729,1.468,8.521-0.1,10.183c-22.906,24.263-70.971-13.328-71.449-13.708c-2.701-2.146-6.519-2.175-9.251-0.064
	c-2.731,2.109-3.67,5.812-2.274,8.967c12.332,27.894,46.324,48.227,79.283,48.226c2.007,0,4.012-0.075,6.004-0.229
	c28.387-2.188,49.038-19.714,56.66-48.085C522.44,333.89,470.849,303.659,436.71,283.655z M183.358,443.767
	c0.761-3.046,3.126-5.411,6.171-6.171l22.659-5.665c1.997-0.5,3.701-1.798,4.713-3.591c1.012-1.793,1.241-3.924,0.636-5.891
	l-26.675-86.693c-3.882-12.616-5.119-25.549-3.7-37.985c14.611,11.257,30.203,20.282,46.574,26.92
	c0.555,3.475,1.276,6.951,2.173,10.42l-3.578,3.763c-4.99,5.249-7.3,12.654-6.181,19.81l10.862,69.398
	c-3.58,3.103-6.2,7.271-7.395,12.048l-4.245,16.979H180.02L183.358,443.767z M251.23,421.913l-10.26-65.549
	c-0.191-1.221-0.097-2.46,0.236-3.629l20.481,66.564L251.23,421.913z M495.659,375.766c-8.04,29.927-30.597,36.041-43.327,37.022
	c-12.196,0.938-25.008-1.778-36.474-7.076c15.938,3.945,33.107,3.027,46.22-10.867c6.172-6.539,7.281-16.724,2.895-26.578
	c-4.116-9.244-14.825-22.308-42.47-32.045c-23.679-8.341-55.253-12.619-93.995-12.774l2.214-2.328
	c2.854-3.002,2.734-7.748-0.268-10.603c-3.001-2.854-7.747-2.735-10.603,0.268l-26.708,28.09c-4.99,5.249-7.3,12.654-6.181,19.81
	l13.873,88.632c0.39,2.487-0.297,4.912-1.935,6.824c-1.638,1.914-3.927,2.968-6.444,2.968h-51.622l3.336-13.341
	c0.761-3.046,3.126-5.411,6.171-6.171l22.659-5.665c1.997-0.5,3.701-1.798,4.713-3.591c1.012-1.793,1.241-3.924,0.636-5.891
	l-26.675-86.693c-6.957-22.612-5.432-45.817,4.299-65.338c1.618-3.247,3.452-6.4,5.452-9.376c2.311-3.438,1.397-8.097-2.04-10.408
	c-3.437-2.311-8.097-1.398-10.408,2.04c-2.36,3.512-4.523,7.229-6.429,11.054c-6.765,13.576-10.178,28.604-10.172,44.056
	c-27.615-12.627-49.754-31.443-67.076-51.176l8.899-20.767c1.632-3.808-0.132-8.215-3.939-9.847
	c-3.808-1.634-8.215,0.133-9.847,3.939l-5.828,13.6c-8.244-10.751-15.134-21.43-20.754-31.198
	c-16.679-28.984-25.474-55.182-28.551-65.364c4.365-2.091,8.721-4.431,13.021-7.076c3.527-2.171,4.628-6.79,2.457-10.317
	c-2.171-3.527-6.789-4.628-10.317-2.457c-38.674,23.801-78.741,20.296-85.028,18.617c-1.419-0.378-2.828-2.201-4.131-4.938
	c14.926-1.005,45.592-4.711,73.421-18.373c3.719-1.825,5.253-6.318,3.428-10.036c-1.826-3.719-6.32-5.256-10.036-3.428
	c-27.681,13.588-59.482,16.451-71.247,17.051c-1.146-5.877-1.847-12.194-1.847-17.644c0-0.901,0.764-22.377,67.14-48.281
	c15.324-5.978,27.561-6.77,37.407-2.415c18.602,8.226,28.983,35.313,39.975,63.991l0.782,2.041
	c13.339,34.776,39.726,40.406,70.279,46.927c16.205,3.459,34.571,7.377,53.325,16.408c52.575,25.313,99.796,72.035,117.657,90.947
	c5.199,5.505,15.067,11.286,27.561,18.607C461.141,315.354,504.987,341.047,495.659,375.766z"/>
<path d="M345.651,283.651l-5.601,5.89c-2.854,3.002-2.734,7.748,0.268,10.603c1.451,1.38,3.311,2.064,5.167,2.064
	c1.982,0,3.962-0.782,5.437-2.332l5.601-5.89c2.854-3.002,2.734-7.748-0.268-10.603C353.252,280.53,348.505,280.65,345.651,283.651z
	"/>
<path d="M79.493,73.571h-0.08c-4.143,0-7.459,3.357-7.459,7.499s3.397,7.499,7.539,7.499c4.143,0,7.499-3.357,7.499-7.499
	S83.636,73.571,79.493,73.571z"/>
<g>
</g>
<g>
</g>
<g>
</g>
<g>
</g>
<g>
</g>
<g>
</g>
<g>
</g>
<g>
</g>
<g>
</g>
<g>
</g>
<g>
</g>
<g>
</g>
<g>
</g>
<g>
</g>
<g>
</g>
</svg>
