<svg id="Capa_1" enable-background="new 0 0 512 512" height="512" viewBox="0 0 512 512" width="512" xmlns="http://www.w3.org/2000/svg"><path d="m492.118 317.341c-38.949 33.712-130.105 47.02-125.708-34.756 5.126-95.327-65.493-130.931-107.067-133.228s-62.645-19.525-58.089-66.614c4.556-47.09-31.323-75.228-74.605-75.228s-98.524 49.386-112.762 76.377c-9.519 18.045-6.309 41.224-3.137 54.606 1.362 5.746 7.621 8.778 12.944 6.307l69.354-32.2-49.337 47.986c-4.199 4.084-4.179 10.934.142 14.886 5.599 5.12 14.127 10.186 24.088 6.946 17.874-5.814 50.739-18.023 50.739-18.023s-3.459 115.697 82.745 166.319c6.622 50.883 54.135 70.897 54.135 70.897 0 40.294-1.713 50.724-30.391 63.523-12.626 5.635-19.784 13.935-23.842 21.461-4.349 8.066 1.406 17.885 10.511 17.885h60.954c18.097 0 32.768-14.793 32.768-33.042v-61.294c13.634-11.851 32.844-47.799 32.844-47.799s31.461 44.106 102.313 29.048c44.131-9.379 58.809-42.858 63.604-66.757 1.419-7.067-6.777-11.996-12.203-7.3z" fill="#98db7c"/><path d="m284.048 431.704v70.78c12.553-4.629 21.513-16.78 21.513-31.041v-61.254c-11.881 0-21.513 9.633-21.513 21.515z" fill="#82d361"/><path d="m104.693 22.071c43.282 0 79.161 28.139 74.605 75.228s16.516 64.317 58.089 66.614c41.574 2.297 112.192 37.901 107.067 133.229-3.907 72.663 80.773 66.407 124.014 35.246-43.517 20.44-105.708 18.08-102.058-49.803 5.126-95.327-65.493-130.931-107.067-133.228s-62.645-19.525-58.089-66.614c4.556-47.09-31.323-75.228-74.605-75.228-22.155 0-47.442 12.942-68.761 29.195 15.578-8.782 31.9-14.639 46.805-14.639z" fill="#82d361"/><path d="m157.317 172.802s3.993 31.821-18.503 46.256c-26.057 16.72-62.276 19.489-56.242 67.264 5.771 45.689 41.55 40.331 37.998 8.085-3.754-34.078 18.961-31.011 42.445-41.535s36.53-19.076 37.835-40.782" fill="#98db7c"/><path d="m200.849 212.089c-7.634-6.889-19.625-5.157-25.035 3.588-7.022 11.351-18.259 18.852-31.904 24.966-23.484 10.525-46.198 7.457-42.444 41.535 1.595 14.485-4.746 23.539-12.737 24.984 11.909 21.792 34.71 13.298 31.841-12.756-3.754-34.078 18.961-31.011 42.445-41.535 23.483-10.524 36.529-19.076 37.834-40.782z" fill="#82d361"/><path d="m194.533 335.304c1.301 7.667 3.509 15.063 6.632 22.071 1.755 3.938 6.624 5.6 10.426 3.557 3.419-1.837 4.879-6.133 3.3-9.676-3.67-8.236-5.86-17.129-6.509-26.432-2.805-40.248 24.134-67.381 24.407-67.65 2.953-2.904 3-7.651.102-10.613-2.902-2.966-7.659-3.019-10.626-.116-1.224 1.198-28.022 27.947-29.075 69.823-17.495-12.906-31.857-29.916-42.86-50.771 4.839-1.547 10.267-3.307 15.756-5.767 22.957-10.289 40.646-20.296 42.263-47.189.249-4.143-2.907-7.703-7.049-7.952-4.163-.254-7.702 2.908-7.951 7.05-1.018 16.928-9.638 23.723-33.407 34.376-4.932 2.21-9.922 3.805-14.748 5.346-16.72 5.342-35.67 11.396-32.093 43.87 1.13 10.259-2.721 16.322-6.919 16.818-4.868.579-13.564-6.155-16.155-26.667-4.005-31.707 11.769-39.277 33.601-49.755 6.402-3.073 13.022-6.25 19.245-10.243 26.183-16.801 22.088-52.026 21.9-53.517-.516-4.109-4.261-7.019-8.368-6.512-4.111.503-7.037 4.25-6.545 8.362.033.273 3.048 27.371-15.102 39.017-.924.593-1.876 1.166-2.838 1.731-6.256-27.991-5.734-49.608-5.727-49.84.157-5.234-5.209-9.094-10.127-7.269-.327.122-32.926 12.222-50.446 17.921-5.311 1.728-10.927-.071-16.694-5.345-1.136-1.039-1.049-2.907.026-3.953l49.337-47.986c2.634-2.561 3.006-6.782.866-9.766-2.077-2.898-6.034-3.938-9.269-2.437l-69.354 32.2c-1.021.474-2.213-.145-2.468-1.225-2.73-11.512-6.038-33.234 2.471-49.366 6.963-13.198 24.382-31.604 43.346-45.8 22.887-17.133 45.179-26.568 62.77-26.568 21.66 0 41.083 7.71 53.288 21.155 10.803 11.9 15.588 27.75 13.838 45.836-2.343 24.214 1.682 41.998 12.304 54.368 10.648 12.4 27.935 19.096 52.85 20.473 6.43.355 13.516 1.6 20.492 3.6 3.986 1.143 8.15-1.163 9.294-5.153 1.144-3.989-1.163-8.151-5.152-9.295-8.154-2.338-16.163-3.737-23.805-4.16-20.61-1.138-34.44-6.13-42.278-15.258-7.813-9.099-10.674-23.206-8.746-43.129 2.169-22.419-3.941-42.262-17.67-57.385-15.05-16.577-38.528-26.083-64.417-26.083-12.055 0-37.41 3.841-71.775 29.566-20.906 15.649-39.603 35.597-47.633 50.819-5.662 10.735-10.918 29.831-3.802 59.846 1.173 4.946 4.463 9.052 9.027 11.266 4.555 2.209 9.801 2.254 14.393.123l29.272-13.59-17.657 17.174c-7.181 6.984-7.11 19.033.311 25.818 9.771 8.937 20.952 11.972 31.483 8.547 11.86-3.858 29.948-10.39 41.113-14.474.512 10.317 2.098 27.07 6.77 46.488-.341.164-.683.329-1.023.492-22.204 10.656-47.37 22.734-42.008 65.188 3.522 27.885 17.373 39.855 30.351 39.855.83 0 1.658-.049 2.478-.146 15.405-1.822 21.768-18.176 20.092-33.389-1.488-13.514 1.146-19.006 8.095-22.775 14.218 27.641 33.838 49.291 58.397 64.496z"/><path d="m504.488 310.039c-5.596-3.261-12.382-2.626-17.288 1.62-22.359 19.355-65.373 32.054-91.344 19.327-15.856-7.769-23.239-23.917-21.944-47.997 4.016-74.687-36.487-109.974-60.988-124.36-3.578-2.1-8.183-.904-10.284 2.676-2.101 3.579-.903 8.184 2.675 10.285 21.555 12.657 57.179 43.854 53.59 110.592-2.054 38.2 15.365 54.964 30.339 62.301 14.989 7.344 35.01 8.672 56.374 3.738 19.267-4.45 37.944-13.586 51.346-25.131-.002.02-.006.044-.012.073-3.066 15.284-9.005 28.126-17.65 38.17-2.457 2.855-2.387 7.236.175 10.003 3.008 3.249 8.328 3.156 11.214-.197 10.351-12.025 17.415-27.172 20.995-45.019 1.3-6.463-1.527-12.776-7.198-16.081z"/><path d="m457.854 377.753c-5.652 2.741-11.943 4.859-18.698 6.295-27.255 5.791-51.439 3.184-71.879-7.753-15.278-8.175-22.701-18.236-22.755-18.309-3.18-4.46-10.162-4.01-12.744.822-5.161 9.659-20.82 36.693-31.146 45.67-1.642 1.427-2.584 3.496-2.584 5.672v61.294c0 14.076-11.329 25.527-25.254 25.527h-60.954c-3.446 0-5.491-3.848-3.897-6.804 4.291-7.96 11.118-14.071 20.29-18.165 33.155-14.798 34.843-29.642 34.843-70.386 0-3.011-1.813-5.738-4.582-6.919-.148-.063-14.919-6.462-28.308-20.697-2.842-3.023-7.598-3.169-10.621-.325-3.023 2.843-3.168 7.599-.325 10.622 10.947 11.639 22.553 18.701 28.798 22.004-.16 35.264-2.591 41.559-25.93 51.975-12.274 5.479-21.49 13.808-27.393 24.757-5.269 9.772-1.201 22.472 8.915 27.169 2.564 1.191 5.384 1.797 8.21 1.797h60.954c22.212 0 40.283-18.194 40.283-40.557v-58.057c9.584-9.675 20.542-27.465 26.824-38.327 4.462 4.197 10.924 9.371 19.487 14.054 16.372 8.953 44.042 17.893 82.893 9.634 7.942-1.688 15.388-4.202 22.131-7.472 3.734-1.811 5.293-6.306 3.483-10.041-1.812-3.733-6.309-5.292-10.041-3.48z"/><path d="m69.636 74.394c0 9.86 5.797 17.296 13.484 17.296s13.483-7.436 13.483-17.296-5.796-17.295-13.483-17.295-13.484 7.435-13.484 17.295z"/></svg>