<?xml version="1.0" encoding="iso-8859-1"?>
<!-- Generator: Adobe Illustrator 19.0.0, SVG Export Plug-In . SVG Version: 6.00 Build 0)  -->
<svg version="1.1" id="Capa_1" xmlns="http://www.w3.org/2000/svg" xmlns:xlink="http://www.w3.org/1999/xlink" x="0px" y="0px"
	 viewBox="0 0 512.001 512.001" style="enable-background:new 0 0 512.001 512.001;" xml:space="preserve">
<g>
	<path style="fill:#96BE4B;" d="M93.977,336.829l20.298,73.091c1.152,4.223,1.427,8.638,0.808,12.971l-7.078,49.544l-16.444,5.481
		c-4.787,1.596-8.544,5.352-10.14,10.14l-1.964,5.893c-1.73,5.191,2.133,10.551,7.605,10.551h58.351l11.356-162.995L93.977,336.829z
		"/>
	<path style="fill:#96BE4B;" d="M279.352,367.801l13.692,72.57l-8.016,32.065l-16.444,5.481c-4.787,1.596-8.544,5.352-10.14,10.14
		l-1.964,5.893c-1.73,5.191,2.133,10.551,7.605,10.551h32.746c7.23,0,13.565-4.839,15.467-11.814l16.872-61.863
		c2.625-9.624,3.955-19.555,3.955-29.53v-38.521c0-14.511-11.421-26.451-25.918-27.095l0,0
		C289.737,334.901,276.109,350.617,279.352,367.801z"/>
</g>
<path style="fill:#BEE86E;" d="M492.779,384.258c0-70.427-153.733-164.408-340.024-166.358c-9.527-0.1-18.179-5.538-22.003-14.266
	c-7.858-17.936-17.026-54.105-6.715-115.973C136.032,15.693,61.537,7.5,61.537,7.5c-3.851,0-7.544,1.529-10.267,4.253l-8.141,8.14
	c-1.362,1.362-3.208,2.126-5.133,2.126H26.482c-4.008,0-7.259,3.251-7.259,7.26v7.692c0,7.93,6.31,14.402,14.238,14.518
	c3.942,0.058,8.824,0.097,14.803,0.097c23.179,0,46.046,10.839,38.719,46.661c-11.997,58.654-26.57,105.144-21.73,164.433
	c4.088,50.088,26.356,90.102,70.033,112.154c75.592,42.156,232.231-0.955,232.231-0.955c44.098-14.672,79.21-7.825,90.526,12.382
	c8.458,15.106,11.697,40.883-3.646,65.49C473.175,436.399,492.779,413.096,492.779,384.258z"/>
<path style="fill:#D4F582;" d="M362.183,357.537c-42.768,13.978-147.964,28.725-212.093-6.68
	C84.714,314.765,83.289,225.94,89.301,185.859c3.634-24.228,25.05-98.866,6.679-129.928C82.702,33.477,39.868,36.972,19.223,36.972
	c0,7.93,6.31,14.402,14.238,14.518c3.942,0.058,8.824,0.097,14.803,0.097c23.179,0,46.046,10.839,38.719,46.661
	c-11.997,58.653-26.57,105.143-21.73,164.432c4.088,50.088,26.356,90.102,70.033,112.154c75.592,42.156,232.231-0.955,232.231-0.955
	c44.098-14.672,79.21-7.825,90.526,12.382c2.675,4.78,4.327,9.71,4.846,14.821l9.349,14.237
	C489.439,368.559,434.134,334.022,362.183,357.537z"/>
<g>
	<path style="fill:#AFD755;" d="M157.462,278.546c-23.565-2.178-42.022,19.901-35.701,42.707l24.578,88.668
		c1.152,4.223,1.427,8.637,0.808,12.971l-7.078,49.544l-16.444,5.481c-4.787,1.596-8.544,5.352-10.14,10.14l-1.964,5.893
		c-1.73,5.191,2.133,10.551,7.605,10.551h32.746c7.23,0,13.565-4.839,15.467-11.814l16.872-61.864
		c2.625-9.624,3.954-19.554,3.954-29.529V312.22C188.166,294.749,174.859,280.154,157.462,278.546L157.462,278.546z"/>
	<path style="fill:#AFD755;" d="M303.059,332.47l21.381,107.901l-8.016,32.065l-16.444,5.481c-4.787,1.596-8.544,5.352-10.14,10.14
		l-1.964,5.893c-1.73,5.191,2.133,10.551,7.605,10.551h32.746c7.23,0,13.565-4.839,15.467-11.814l16.872-61.863
		c2.625-9.624,3.955-19.555,3.955-29.53V326.44c0-17.136-13.891-31.027-31.027-31.027l0,0
		C313.937,295.413,299.258,313.286,303.059,332.47z"/>
</g>
<path d="M396.124,268.766c-32.38-17.072-70.356-31.329-109.823-41.228c-43.456-10.899-88.36-16.665-133.466-17.138
	c-6.67-0.069-12.642-3.907-15.212-9.776c-15.637-35.692-10.589-85.322-6.188-111.729c3.835-23.007-0.135-42.483-11.8-57.89
	C99.499,4.41,63.863,0.211,62.356,0.045C62.084,0.015,61.81,0,61.536,0c-5.883,0-11.413,2.291-15.57,6.449l-8.069,8.07H26.482
	c-8.139,0-14.76,6.621-14.76,14.76v7.692c0,11.966,9.702,21.843,21.629,22.018c4.468,0.065,9.485,0.099,14.912,0.099
	c7.279,0,20.536,1.282,27.545,9.869c5.045,6.182,6.332,15.531,3.825,27.789c-2.286,11.175-4.682,21.976-6.998,32.421
	c-9.701,43.744-18.863,85.063-14.859,134.123c2.779,34.038,13.622,62.636,31.854,84.772l17.409,63.832
	c0.887,3.256,1.096,6.599,0.618,9.938l-6.423,44.955l-12.046,4.016c-6.989,2.33-12.553,7.894-14.883,14.883l-5.481,16.443
	c-0.763,2.287-0.379,4.802,1.031,6.758c1.409,1.955,3.673,3.114,6.084,3.114h75.933c10.582,0,19.918-7.131,22.702-17.34
	l16.872-61.864c2.8-10.263,4.219-20.861,4.219-31.502v-1.863c9.938,1.109,20.409,1.679,31.245,1.679
	c16.374,0,32.811-0.965,50.165-2.963l7.632,41.973l-6.625,26.501l-12.539,4.18c-6.989,2.33-12.553,7.894-14.883,14.883
	l-5.481,16.443c-0.763,2.287-0.379,4.802,1.031,6.758c1.409,1.955,3.673,3.114,6.084,3.114h75.933
	c10.584,0,19.919-7.131,22.702-17.34l16.872-61.864c2.8-10.265,4.22-20.863,4.22-31.502v-20.98
	c42.441-13.532,70.531-4.911,79.634,9.879c9.24,15.016,7.878,30.699-4.051,46.615c-9.682,12.917-22.779,21.158-22.901,21.234
	c-3.41,2.11-4.556,6.53-2.602,10.031c1.368,2.452,3.917,3.847,6.555,3.847c1.128,0,2.273-0.255,3.349-0.793
	c2.787-1.394,68.274-34.737,68.274-86.869C500.279,346.328,461.343,303.153,396.124,268.766z M139.104,411.894
	c0.888,3.256,1.097,6.599,0.619,9.938l-6.423,44.955l-12.046,4.016c-2.106,0.702-4.08,1.703-5.878,2.943
	c0.015-0.084,0.041-0.164,0.053-0.249l7.078-49.544c0.769-5.377,0.433-10.762-0.997-16.005l-10.815-39.655
	c6.148,4.677,12.799,8.875,19.946,12.572L139.104,411.894z M88.537,490.429c0.845-2.534,2.862-4.552,5.396-5.396l15.297-5.099
	c-1.2,1.764-2.173,3.694-2.859,5.751L102.599,497H86.347L88.537,490.429z M316.772,440.121l-6.625,26.501l-12.539,4.18
	c-2.091,0.697-4.05,1.689-5.837,2.916l7.881-31.527c0.258-1.034,0.293-2.112,0.103-3.161l-7.785-42.816
	c5.339-0.771,10.779-1.633,16.348-2.594L316.772,440.121z M264.892,490.429c0.845-2.534,2.862-4.552,5.396-5.396l15.297-5.099
	c-1.2,1.765-2.173,3.694-2.859,5.752L278.955,497h-16.254L264.892,490.429z M471.861,419.729
	c2.494-12.646,0.029-25.273-7.431-37.397c-7.248-11.776-20.919-19.791-38.495-22.566c-15.801-2.496-34.316-0.8-53.914,4.872v-4.427
	c0-4.143-3.357-7.5-7.5-7.5s-7.5,3.357-7.5,7.5v41.084c0,9.306-1.242,18.576-3.69,27.555l-16.873,61.865
	c-1.009,3.701-4.394,6.286-8.23,6.286h-33.462l2.19-6.571c0.845-2.534,2.862-4.552,5.396-5.396l16.444-5.481
	c2.433-0.811,4.282-2.809,4.904-5.296l8.016-32.064c0.258-1.034,0.293-2.112,0.103-3.161l-16.032-88.178
	c-0.74-4.076-4.642-6.781-8.721-6.037c-4.075,0.741-6.778,4.646-6.037,8.721l4.605,25.325c-28.637,4.938-53.782,7.25-78.723,7.25
	c-10.891,0-21.374-0.599-31.245-1.773v-2.083c0-4.143-3.357-7.5-7.5-7.5s-7.5,3.357-7.5,7.5v19.04
	c0,9.308-1.241,18.578-3.689,27.555l-16.872,61.864c-1.01,3.702-4.395,6.287-8.231,6.287h-33.463l2.19-6.571
	c0.845-2.534,2.862-4.552,5.396-5.396l16.443-5.481c2.694-0.898,4.65-3.242,5.053-6.055l7.078-49.544
	c0.769-5.377,0.433-10.762-0.997-16.005l-22.303-81.775c-1.089-3.996-5.211-6.356-9.209-5.262c-3.996,1.09-6.352,5.213-5.262,9.209
	l8.177,29.983c-13.607-9.214-24.723-20.842-33.143-34.721c-10.688-17.621-17.118-38.923-19.108-63.312
	c-3.821-46.803,4.693-85.197,14.553-129.654c2.33-10.505,4.738-21.367,7.049-32.663c3.454-16.886,1.133-30.438-6.899-40.279
	c-5.728-7.023-17.172-15.389-39.165-15.389c-5.354,0-10.298-0.032-14.692-0.097c-3.841-0.057-6.849-3.14-6.849-7.02V29.52h11.272
	c3.943,0,7.649-1.535,10.438-4.322l8.142-8.142c1.232-1.233,2.844-1.951,4.572-2.045c3.771,0.519,31.31,4.947,46.529,25.049
	c9.078,11.989,12.094,27.59,8.963,46.368c-10.345,62.077-1.771,99.638,7.244,120.216c4.935,11.263,16.237,18.625,28.796,18.757
	c83.666,0.875,169.849,21.518,236.45,56.635c59.308,31.271,96.15,70.439,96.15,102.223
	C485.279,397.438,479.661,409.43,471.861,419.729z"/>
<path d="M188.166,336.678c-4.143,0-7.5,3.357-7.5,7.5v7.682c0,4.143,3.357,7.5,7.5,7.5s7.5-3.357,7.5-7.5v-7.682
	C195.666,340.035,192.309,336.678,188.166,336.678z"/>
<g>
</g>
<g>
</g>
<g>
</g>
<g>
</g>
<g>
</g>
<g>
</g>
<g>
</g>
<g>
</g>
<g>
</g>
<g>
</g>
<g>
</g>
<g>
</g>
<g>
</g>
<g>
</g>
<g>
</g>
</svg>
